<mxfile host="Electron" modified="2024-03-11T15:59:02.097Z" agent="Mozilla/5.0 (Windows NT 10.0; Win64; x64) AppleWebKit/537.36 (KHTML, like Gecko) draw.io/23.1.5 Chrome/120.0.6099.109 Electron/28.1.0 Safari/537.36" etag="PX7kaIREHRTFZ2ZCZjiv" version="23.1.5" type="device">
  <diagram name="Page-1" id="gwVyN43g-wXyU5WrKhXc">
    <mxGraphModel dx="1434" dy="844" grid="1" gridSize="10" guides="1" tooltips="1" connect="1" arrows="1" fold="1" page="1" pageScale="1" pageWidth="1100" pageHeight="850" math="0" shadow="0">
      <root>
        <mxCell id="0" />
        <mxCell id="1" parent="0" />
        <mxCell id="jNqYG85YL75cJUmXPqXT-95" value="" style="rounded=0;whiteSpace=wrap;html=1;fillColor=none;dashed=1;dashPattern=12 12;" parent="1" vertex="1">
          <mxGeometry x="55" y="84.5" width="1335" height="755.5" as="geometry" />
        </mxCell>
        <mxCell id="jNqYG85YL75cJUmXPqXT-73" value="" style="rounded=0;whiteSpace=wrap;html=1;fillColor=none;dashed=1;dashPattern=12 12;" parent="1" vertex="1">
          <mxGeometry x="430" y="270" width="938" height="550" as="geometry" />
        </mxCell>
        <mxCell id="jNqYG85YL75cJUmXPqXT-78" value="" style="rounded=0;whiteSpace=wrap;html=1;fillColor=none;dashed=1;dashPattern=12 12;" parent="1" vertex="1">
          <mxGeometry x="913" y="290" width="430" height="510" as="geometry" />
        </mxCell>
        <mxCell id="jNqYG85YL75cJUmXPqXT-18" value="" style="rounded=0;whiteSpace=wrap;html=1;fillColor=none;dashed=1;dashPattern=12 12;" parent="1" vertex="1">
          <mxGeometry x="100" y="180" width="460" height="70" as="geometry" />
        </mxCell>
        <mxCell id="jNqYG85YL75cJUmXPqXT-41" value="" style="rounded=0;whiteSpace=wrap;html=1;fillColor=none;dashed=1;dashPattern=12 12;" parent="1" vertex="1">
          <mxGeometry x="620" y="502" width="170" height="200" as="geometry" />
        </mxCell>
        <mxCell id="jNqYG85YL75cJUmXPqXT-16" value="" style="rounded=0;whiteSpace=wrap;html=1;fillColor=none;dashed=1;dashPattern=12 12;" parent="1" vertex="1">
          <mxGeometry x="80" y="338" width="130" height="312" as="geometry" />
        </mxCell>
        <mxCell id="jNqYG85YL75cJUmXPqXT-19" value="" style="rounded=0;whiteSpace=wrap;html=1;fillColor=none;dashed=1;dashPattern=12 12;" parent="1" vertex="1">
          <mxGeometry x="240" y="338" width="130" height="312" as="geometry" />
        </mxCell>
        <mxCell id="jNqYG85YL75cJUmXPqXT-1" value="4-Projects" style="shape=folder;fontStyle=1;spacingTop=10;tabWidth=40;tabHeight=14;tabPosition=left;html=1;whiteSpace=wrap;" parent="1" vertex="1">
          <mxGeometry x="110" y="90" width="70" height="50" as="geometry" />
        </mxCell>
        <mxCell id="jNqYG85YL75cJUmXPqXT-2" value="BU-1" style="shape=folder;fontStyle=1;spacingTop=10;tabWidth=40;tabHeight=14;tabPosition=left;html=1;whiteSpace=wrap;" parent="1" vertex="1">
          <mxGeometry x="110" y="190" width="70" height="50" as="geometry" />
        </mxCell>
        <mxCell id="jNqYG85YL75cJUmXPqXT-3" value="BU-2" style="shape=folder;fontStyle=1;spacingTop=10;tabWidth=40;tabHeight=14;tabPosition=left;html=1;whiteSpace=wrap;" parent="1" vertex="1">
          <mxGeometry x="280" y="190" width="70" height="50" as="geometry" />
        </mxCell>
        <mxCell id="jNqYG85YL75cJUmXPqXT-4" value="modules" style="shape=folder;fontStyle=1;spacingTop=10;tabWidth=40;tabHeight=14;tabPosition=left;html=1;whiteSpace=wrap;" parent="1" vertex="1">
          <mxGeometry x="444" y="190" width="70" height="50" as="geometry" />
        </mxCell>
        <mxCell id="jNqYG85YL75cJUmXPqXT-5" value="Development" style="shape=folder;fontStyle=1;spacingTop=10;tabWidth=40;tabHeight=14;tabPosition=left;html=1;whiteSpace=wrap;" parent="1" vertex="1">
          <mxGeometry x="110" y="348" width="80" height="50" as="geometry" />
        </mxCell>
        <mxCell id="jNqYG85YL75cJUmXPqXT-6" value="Non-Prod" style="shape=folder;fontStyle=1;spacingTop=10;tabWidth=40;tabHeight=14;tabPosition=left;html=1;whiteSpace=wrap;" parent="1" vertex="1">
          <mxGeometry x="110" y="418" width="80" height="50" as="geometry" />
        </mxCell>
        <mxCell id="jNqYG85YL75cJUmXPqXT-7" value="Production" style="shape=folder;fontStyle=1;spacingTop=10;tabWidth=40;tabHeight=14;tabPosition=left;html=1;whiteSpace=wrap;" parent="1" vertex="1">
          <mxGeometry x="110" y="488" width="80" height="50" as="geometry" />
        </mxCell>
        <mxCell id="jNqYG85YL75cJUmXPqXT-8" value="Development" style="shape=folder;fontStyle=1;spacingTop=10;tabWidth=40;tabHeight=14;tabPosition=left;html=1;whiteSpace=wrap;" parent="1" vertex="1">
          <mxGeometry x="280" y="348" width="80" height="50" as="geometry" />
        </mxCell>
        <mxCell id="jNqYG85YL75cJUmXPqXT-9" value="Non-Prod" style="shape=folder;fontStyle=1;spacingTop=10;tabWidth=40;tabHeight=14;tabPosition=left;html=1;whiteSpace=wrap;" parent="1" vertex="1">
          <mxGeometry x="280" y="418" width="80" height="50" as="geometry" />
        </mxCell>
        <mxCell id="jNqYG85YL75cJUmXPqXT-10" value="Production" style="shape=folder;fontStyle=1;spacingTop=10;tabWidth=40;tabHeight=14;tabPosition=left;html=1;whiteSpace=wrap;" parent="1" vertex="1">
          <mxGeometry x="280" y="488" width="80" height="50" as="geometry" />
        </mxCell>
        <mxCell id="jNqYG85YL75cJUmXPqXT-14" value="Shared" style="shape=folder;fontStyle=1;spacingTop=10;tabWidth=40;tabHeight=14;tabPosition=left;html=1;whiteSpace=wrap;" parent="1" vertex="1">
          <mxGeometry x="110" y="568" width="80" height="50" as="geometry" />
        </mxCell>
        <mxCell id="jNqYG85YL75cJUmXPqXT-15" value="Shared" style="shape=folder;fontStyle=1;spacingTop=10;tabWidth=40;tabHeight=14;tabPosition=left;html=1;whiteSpace=wrap;" parent="1" vertex="1">
          <mxGeometry x="280" y="568" width="80" height="50" as="geometry" />
        </mxCell>
        <mxCell id="jNqYG85YL75cJUmXPqXT-17" value="1" style="endArrow=open;html=1;endSize=12;startArrow=diamondThin;startSize=14;startFill=1;edgeStyle=orthogonalEdgeStyle;align=left;verticalAlign=bottom;rounded=0;" parent="1" edge="1">
          <mxGeometry x="-1" y="3" relative="1" as="geometry">
            <mxPoint x="144.5" y="140" as="sourcePoint" />
            <mxPoint x="145" y="180" as="targetPoint" />
          </mxGeometry>
        </mxCell>
        <mxCell id="jNqYG85YL75cJUmXPqXT-20" value="1" style="endArrow=open;html=1;endSize=12;startArrow=diamondThin;startSize=14;startFill=1;edgeStyle=orthogonalEdgeStyle;align=left;verticalAlign=bottom;rounded=0;" parent="1" edge="1">
          <mxGeometry x="-1" y="3" relative="1" as="geometry">
            <mxPoint x="149.5" y="240" as="sourcePoint" />
            <mxPoint x="150" y="340" as="targetPoint" />
            <Array as="points">
              <mxPoint x="149.5" y="260" />
              <mxPoint x="149.5" y="490" />
            </Array>
          </mxGeometry>
        </mxCell>
        <mxCell id="jNqYG85YL75cJUmXPqXT-22" value="1" style="endArrow=open;html=1;endSize=12;startArrow=diamondThin;startSize=14;startFill=1;edgeStyle=orthogonalEdgeStyle;align=left;verticalAlign=bottom;rounded=0;" parent="1" edge="1">
          <mxGeometry x="-1" y="3" relative="1" as="geometry">
            <mxPoint x="317.5" y="239" as="sourcePoint" />
            <mxPoint x="318" y="340" as="targetPoint" />
            <Array as="points">
              <mxPoint x="317.5" y="259" />
              <mxPoint x="317.5" y="489" />
            </Array>
          </mxGeometry>
        </mxCell>
        <mxCell id="jNqYG85YL75cJUmXPqXT-27" value="&lt;p style=&quot;margin: 6px 0px 0px;&quot;&gt;Folder&lt;/p&gt;" style="align=left;overflow=fill;html=1;dropTarget=0;whiteSpace=wrap;" parent="1" vertex="1">
          <mxGeometry x="470" y="438" width="80" height="42" as="geometry" />
        </mxCell>
        <mxCell id="jNqYG85YL75cJUmXPqXT-28" value="" style="shape=component;jettyWidth=8;jettyHeight=4;" parent="jNqYG85YL75cJUmXPqXT-27" vertex="1">
          <mxGeometry x="1" width="20" height="20" relative="1" as="geometry">
            <mxPoint x="-24" y="4" as="offset" />
          </mxGeometry>
        </mxCell>
        <object label="single-project" Description="Provides as examples" id="jNqYG85YL75cJUmXPqXT-29">
          <mxCell style="shape=module;align=left;spacingLeft=20;align=center;verticalAlign=top;whiteSpace=wrap;html=1;" parent="1" vertex="1">
            <mxGeometry x="670" y="338" width="90" height="42" as="geometry" />
          </mxCell>
        </object>
        <mxCell id="jNqYG85YL75cJUmXPqXT-30" value="infra-pipelines" style="shape=module;align=left;spacingLeft=20;align=center;verticalAlign=top;whiteSpace=wrap;html=1;" parent="1" vertex="1">
          <mxGeometry x="923" y="338" width="90" height="43" as="geometry" />
        </mxCell>
        <mxCell id="jNqYG85YL75cJUmXPqXT-31" value="1" style="endArrow=open;html=1;endSize=12;startArrow=diamondThin;startSize=14;startFill=1;edgeStyle=orthogonalEdgeStyle;align=left;verticalAlign=bottom;rounded=0;entryX=0;entryY=0.583;entryDx=0;entryDy=0;entryPerimeter=0;" parent="1" target="jNqYG85YL75cJUmXPqXT-29" edge="1">
          <mxGeometry x="-1" y="3" relative="1" as="geometry">
            <mxPoint x="550" y="362.5" as="sourcePoint" />
            <mxPoint x="640" y="362.5" as="targetPoint" />
          </mxGeometry>
        </mxCell>
        <mxCell id="jNqYG85YL75cJUmXPqXT-32" value="project-factory&lt;br&gt;&lt;span style=&quot;background-color: rgb(255, 255, 0);&quot;&gt;project&lt;/span&gt;&lt;div&gt;&lt;br/&gt;&lt;/div&gt;" style="shape=module;align=left;spacingLeft=20;align=center;verticalAlign=top;whiteSpace=wrap;html=1;fillColor=#FFCCE6;" parent="1" vertex="1">
          <mxGeometry x="653" y="442.25" width="125" height="40" as="geometry" />
        </mxCell>
        <mxCell id="jNqYG85YL75cJUmXPqXT-33" value="&lt;p style=&quot;margin: 6px 0px 0px;&quot;&gt;folder-iam-&lt;/p&gt;&lt;p style=&quot;margin: 6px 0px 0px;&quot;&gt;member&lt;/p&gt;" style="align=left;overflow=fill;html=1;dropTarget=0;whiteSpace=wrap;" parent="1" vertex="1">
          <mxGeometry x="660" y="582" width="110" height="42" as="geometry" />
        </mxCell>
        <mxCell id="jNqYG85YL75cJUmXPqXT-34" value="" style="shape=component;jettyWidth=8;jettyHeight=4;" parent="jNqYG85YL75cJUmXPqXT-33" vertex="1">
          <mxGeometry x="1" width="20" height="20" relative="1" as="geometry">
            <mxPoint x="-24" y="4" as="offset" />
          </mxGeometry>
        </mxCell>
        <mxCell id="jNqYG85YL75cJUmXPqXT-35" value="&lt;p style=&quot;margin: 6px 0px 0px;&quot;&gt;compute-subnet-iam-member&lt;/p&gt;" style="align=left;overflow=fill;html=1;dropTarget=0;whiteSpace=wrap;" parent="1" vertex="1">
          <mxGeometry x="661" y="642" width="110" height="42" as="geometry" />
        </mxCell>
        <mxCell id="jNqYG85YL75cJUmXPqXT-36" value="" style="shape=component;jettyWidth=8;jettyHeight=4;" parent="jNqYG85YL75cJUmXPqXT-35" vertex="1">
          <mxGeometry x="1" width="20" height="20" relative="1" as="geometry">
            <mxPoint x="-24" y="4" as="offset" />
          </mxGeometry>
        </mxCell>
        <mxCell id="jNqYG85YL75cJUmXPqXT-37" value="&lt;p style=&quot;margin: 6px 0px 0px;&quot;&gt;project-iam-&lt;/p&gt;&lt;p style=&quot;margin: 6px 0px 0px;&quot;&gt;member&lt;/p&gt;" style="align=left;overflow=fill;html=1;dropTarget=0;whiteSpace=wrap;" parent="1" vertex="1">
          <mxGeometry x="660" y="521" width="110" height="42" as="geometry" />
        </mxCell>
        <mxCell id="jNqYG85YL75cJUmXPqXT-38" value="" style="shape=component;jettyWidth=8;jettyHeight=4;" parent="jNqYG85YL75cJUmXPqXT-37" vertex="1">
          <mxGeometry x="1" width="20" height="20" relative="1" as="geometry">
            <mxPoint x="-24" y="4" as="offset" />
          </mxGeometry>
        </mxCell>
        <mxCell id="jNqYG85YL75cJUmXPqXT-39" value="&lt;p style=&quot;border-color: var(--border-color); color: rgb(0, 0, 0); font-family: Helvetica; font-size: 12px; font-style: normal; font-variant-ligatures: normal; font-variant-caps: normal; font-weight: 400; letter-spacing: normal; orphans: 2; text-align: left; text-indent: 0px; text-transform: none; widows: 2; word-spacing: 0px; -webkit-text-stroke-width: 0px; background-color: rgb(251, 251, 251); text-decoration-thickness: initial; text-decoration-style: initial; text-decoration-color: initial; margin: 6px 0px 0px;&quot;&gt;SA for cloudbuild pipeline&lt;/p&gt;" style="text;whiteSpace=wrap;html=1;" parent="1" vertex="1">
          <mxGeometry x="641" y="490" width="150" height="41" as="geometry" />
        </mxCell>
        <mxCell id="jNqYG85YL75cJUmXPqXT-40" value="&lt;p style=&quot;border-color: var(--border-color); color: rgb(0, 0, 0); font-family: Helvetica; font-size: 12px; font-style: normal; font-variant-ligatures: normal; font-variant-caps: normal; font-weight: 400; letter-spacing: normal; orphans: 2; text-align: left; text-indent: 0px; text-transform: none; widows: 2; word-spacing: 0px; -webkit-text-stroke-width: 0px; background-color: rgb(251, 251, 251); text-decoration-thickness: initial; text-decoration-style: initial; text-decoration-color: initial; margin: 6px 0px 0px;&quot;&gt;SA for cloudbuild pipeline&lt;/p&gt;" style="text;whiteSpace=wrap;html=1;" parent="1" vertex="1">
          <mxGeometry x="641" y="555" width="150" height="40" as="geometry" />
        </mxCell>
        <mxCell id="jNqYG85YL75cJUmXPqXT-42" value="1" style="endArrow=open;html=1;endSize=12;startArrow=diamondThin;startSize=14;startFill=1;edgeStyle=orthogonalEdgeStyle;align=left;verticalAlign=bottom;rounded=0;entryX=0.5;entryY=0;entryDx=0;entryDy=0;" parent="1" target="jNqYG85YL75cJUmXPqXT-32" edge="1">
          <mxGeometry x="-1" y="3" relative="1" as="geometry">
            <mxPoint x="715.5" y="380" as="sourcePoint" />
            <mxPoint x="715.5" y="430" as="targetPoint" />
            <Array as="points">
              <mxPoint x="716" y="400" />
            </Array>
          </mxGeometry>
        </mxCell>
        <mxCell id="jNqYG85YL75cJUmXPqXT-43" value="&lt;span style=&quot;color: rgb(0, 0, 0); font-family: Helvetica; font-size: 12px; font-style: normal; font-variant-ligatures: normal; font-variant-caps: normal; font-weight: 400; letter-spacing: normal; orphans: 2; text-align: left; text-indent: 0px; text-transform: none; widows: 2; word-spacing: 0px; -webkit-text-stroke-width: 0px; text-decoration-thickness: initial; text-decoration-style: initial; text-decoration-color: initial; float: none; display: inline !important; background-color: rgb(255, 255, 0);&quot;&gt;Can&#39;t find&amp;nbsp; initializers for variables used in locals. It seems must edit defaults or add tfvars&lt;/span&gt;" style="text;whiteSpace=wrap;html=1;rotation=1;fillColor=#FFFF00;" parent="1" vertex="1">
          <mxGeometry x="626" y="702" width="180" height="40" as="geometry" />
        </mxCell>
        <mxCell id="jNqYG85YL75cJUmXPqXT-51" value="" style="endArrow=block;dashed=1;endFill=0;endSize=12;html=1;rounded=0;" parent="1" edge="1">
          <mxGeometry width="160" relative="1" as="geometry">
            <mxPoint x="510" y="390" as="sourcePoint" />
            <mxPoint x="509.5" y="440" as="targetPoint" />
          </mxGeometry>
        </mxCell>
        <mxCell id="jNqYG85YL75cJUmXPqXT-53" value="" style="endArrow=block;dashed=1;endFill=0;endSize=12;html=1;rounded=0;entryX=1.01;entryY=0.18;entryDx=0;entryDy=0;entryPerimeter=0;" parent="1" target="jNqYG85YL75cJUmXPqXT-41" edge="1">
          <mxGeometry width="160" relative="1" as="geometry">
            <mxPoint x="740.5" y="381" as="sourcePoint" />
            <mxPoint x="810" y="580" as="targetPoint" />
            <Array as="points">
              <mxPoint x="740" y="400" />
              <mxPoint x="810" y="400" />
              <mxPoint x="810" y="530" />
            </Array>
          </mxGeometry>
        </mxCell>
        <mxCell id="jNqYG85YL75cJUmXPqXT-56" value="&lt;p style=&quot;margin: 6px 0px 0px;&quot;&gt;csr-repository&lt;/p&gt;&lt;p style=&quot;margin: 6px 0px 0px;&quot;&gt;&lt;span style=&quot;background-color: rgb(255, 255, 0);&quot;&gt;app_infra_repo&amp;nbsp;&lt;/span&gt;&lt;/p&gt;&lt;p style=&quot;margin: 6px 0px 0px;&quot;&gt;&lt;span style=&quot;background-color: rgb(255, 255, 0);&quot;&gt;gcp_policies&lt;/span&gt;&lt;/p&gt;" style="align=left;overflow=fill;html=1;dropTarget=0;whiteSpace=wrap;" parent="1" vertex="1">
          <mxGeometry x="943" y="438" width="110" height="62" as="geometry" />
        </mxCell>
        <mxCell id="jNqYG85YL75cJUmXPqXT-57" value="" style="shape=component;jettyWidth=8;jettyHeight=4;" parent="jNqYG85YL75cJUmXPqXT-56" vertex="1">
          <mxGeometry x="1" width="20" height="20" relative="1" as="geometry">
            <mxPoint x="-24" y="4" as="offset" />
          </mxGeometry>
        </mxCell>
        <mxCell id="jNqYG85YL75cJUmXPqXT-59" value="&lt;p style=&quot;margin: 6px 0px 0px;&quot;&gt;storage-bucket&amp;nbsp;&lt;/p&gt;&lt;p style=&quot;margin: 6px 0px 0px;&quot;&gt;&lt;span style=&quot;background-color: rgb(255, 255, 0);&quot;&gt;cloudbuild_bucket&lt;/span&gt;&lt;/p&gt;" style="align=left;overflow=fill;html=1;dropTarget=0;whiteSpace=wrap;" parent="1" vertex="1">
          <mxGeometry x="943" y="521" width="110" height="42" as="geometry" />
        </mxCell>
        <mxCell id="jNqYG85YL75cJUmXPqXT-60" value="" style="shape=component;jettyWidth=8;jettyHeight=4;" parent="jNqYG85YL75cJUmXPqXT-59" vertex="1">
          <mxGeometry x="1" width="20" height="20" relative="1" as="geometry">
            <mxPoint x="-24" y="4" as="offset" />
          </mxGeometry>
        </mxCell>
        <object label="bootstrap /&amp;nbsp;tf_cloudbuild_workspace&amp;nbsp;&lt;br&gt;&lt;span style=&quot;background-color: rgb(255, 255, 0);&quot;&gt;tf_workspace&lt;/span&gt;" Description="Provides as examples" id="jNqYG85YL75cJUmXPqXT-62">
          <mxCell style="shape=module;align=left;spacingLeft=20;align=center;verticalAlign=top;whiteSpace=wrap;html=1;fillColor=#FF8888;" parent="1" vertex="1">
            <mxGeometry x="1123" y="337" width="200" height="60" as="geometry" />
          </mxCell>
        </object>
        <mxCell id="jNqYG85YL75cJUmXPqXT-63" value="&lt;span style=&quot;color: rgb(0, 0, 0); font-family: Helvetica; font-size: 12px; font-style: normal; font-variant-ligatures: normal; font-variant-caps: normal; font-weight: 400; letter-spacing: normal; orphans: 2; text-align: left; text-indent: 0px; text-transform: none; widows: 2; word-spacing: 0px; -webkit-text-stroke-width: 0px; text-decoration-thickness: initial; text-decoration-style: initial; text-decoration-color: initial; float: none; display: inline !important; background-color: rgb(255, 255, 0);&quot;&gt;Back reference to cloudbuild module in bootstrap package&lt;/span&gt;" style="text;whiteSpace=wrap;html=1;rotation=0;fillColor=#FFFF00;" parent="1" vertex="1">
          <mxGeometry x="1143" y="297" width="180" height="40" as="geometry" />
        </mxCell>
        <mxCell id="jNqYG85YL75cJUmXPqXT-64" value="Really bad dependency" style="rounded=0;whiteSpace=wrap;html=1;fillColor=#FF8888;" parent="1" vertex="1">
          <mxGeometry x="1050" y="20" width="120" height="34" as="geometry" />
        </mxCell>
        <mxCell id="jNqYG85YL75cJUmXPqXT-66" value="&lt;p style=&quot;margin: 6px 0px 0px;&quot;&gt;&lt;span style=&quot;background-color: initial;&quot;&gt;artifact_registry_repository_&lt;/span&gt;&lt;span style=&quot;background-color: initial;&quot;&gt;iam_member&lt;/span&gt;&lt;/p&gt;&lt;p style=&quot;margin: 6px 0px 0px;&quot;&gt;&lt;span style=&quot;background-color: rgb(255, 255, 0);&quot;&gt;terraform-image-iam&lt;/span&gt;&lt;/p&gt;" style="align=left;overflow=fill;html=1;dropTarget=0;whiteSpace=wrap;" parent="1" vertex="1">
          <mxGeometry x="943" y="590" width="260" height="42" as="geometry" />
        </mxCell>
        <mxCell id="jNqYG85YL75cJUmXPqXT-67" value="" style="shape=component;jettyWidth=8;jettyHeight=4;" parent="jNqYG85YL75cJUmXPqXT-66" vertex="1">
          <mxGeometry x="1" width="20" height="20" relative="1" as="geometry">
            <mxPoint x="-24" y="4" as="offset" />
          </mxGeometry>
        </mxCell>
        <mxCell id="jNqYG85YL75cJUmXPqXT-69" value="&lt;p style=&quot;margin: 6px 0px 0px;&quot;&gt;&lt;span style=&quot;background-color: initial;&quot;&gt;storage_bucket_iam_member&lt;/span&gt;&lt;br&gt;&lt;/p&gt;&lt;p style=&quot;margin: 6px 0px 0px;&quot;&gt;&lt;span style=&quot;background-color: rgb(255, 255, 0);&quot;&gt;tf_state&lt;/span&gt;&lt;span style=&quot;background-color: initial;&quot;&gt;&lt;br&gt;&lt;/span&gt;&lt;/p&gt;" style="align=left;overflow=fill;html=1;dropTarget=0;whiteSpace=wrap;" parent="1" vertex="1">
          <mxGeometry x="943" y="650" width="260" height="42" as="geometry" />
        </mxCell>
        <mxCell id="jNqYG85YL75cJUmXPqXT-70" value="" style="shape=component;jettyWidth=8;jettyHeight=4;" parent="jNqYG85YL75cJUmXPqXT-69" vertex="1">
          <mxGeometry x="1" width="20" height="20" relative="1" as="geometry">
            <mxPoint x="-24" y="4" as="offset" />
          </mxGeometry>
        </mxCell>
        <mxCell id="jNqYG85YL75cJUmXPqXT-71" value="&lt;p style=&quot;margin: 6px 0px 0px;&quot;&gt;sourcerepo_repository_iam_member&lt;/p&gt;&lt;p style=&quot;margin: 6px 0px 0px;&quot;&gt;&lt;span style=&quot;background-color: rgb(255, 255, 0);&quot;&gt;browser&lt;/span&gt;&lt;br&gt;&lt;/p&gt;" style="align=left;overflow=fill;html=1;dropTarget=0;whiteSpace=wrap;" parent="1" vertex="1">
          <mxGeometry x="943" y="710" width="260" height="42" as="geometry" />
        </mxCell>
        <mxCell id="jNqYG85YL75cJUmXPqXT-72" value="" style="shape=component;jettyWidth=8;jettyHeight=4;" parent="jNqYG85YL75cJUmXPqXT-71" vertex="1">
          <mxGeometry x="1" width="20" height="20" relative="1" as="geometry">
            <mxPoint x="-24" y="4" as="offset" />
          </mxGeometry>
        </mxCell>
        <mxCell id="jNqYG85YL75cJUmXPqXT-74" value="1" style="endArrow=open;html=1;endSize=12;startArrow=diamondThin;startSize=14;startFill=1;edgeStyle=orthogonalEdgeStyle;align=left;verticalAlign=bottom;rounded=0;entryX=0;entryY=0.583;entryDx=0;entryDy=0;entryPerimeter=0;" parent="1" edge="1">
          <mxGeometry x="-1" y="3" relative="1" as="geometry">
            <mxPoint x="1008" y="348.5" as="sourcePoint" />
            <mxPoint x="1128" y="348" as="targetPoint" />
          </mxGeometry>
        </mxCell>
        <mxCell id="jNqYG85YL75cJUmXPqXT-75" value="" style="endArrow=block;dashed=1;endFill=0;endSize=12;html=1;rounded=0;entryX=0.114;entryY=0.008;entryDx=0;entryDy=0;entryPerimeter=0;exitX=0.5;exitY=1;exitDx=0;exitDy=0;" parent="1" source="jNqYG85YL75cJUmXPqXT-30" target="jNqYG85YL75cJUmXPqXT-76" edge="1">
          <mxGeometry width="160" relative="1" as="geometry">
            <mxPoint x="963" y="380" as="sourcePoint" />
            <mxPoint x="1033" y="380" as="targetPoint" />
          </mxGeometry>
        </mxCell>
        <mxCell id="jNqYG85YL75cJUmXPqXT-76" value="" style="rounded=0;whiteSpace=wrap;html=1;fillColor=none;dashed=1;dashPattern=12 12;" parent="1" vertex="1">
          <mxGeometry x="933" y="420" width="290" height="358" as="geometry" />
        </mxCell>
        <mxCell id="jNqYG85YL75cJUmXPqXT-77" value="&lt;span style=&quot;color: rgb(0, 0, 0); font-family: Helvetica; font-size: 12px; font-style: normal; font-variant-ligatures: normal; font-variant-caps: normal; font-weight: 400; letter-spacing: normal; orphans: 2; text-align: left; text-indent: 0px; text-transform: none; widows: 2; word-spacing: 0px; -webkit-text-stroke-width: 0px; text-decoration-thickness: initial; text-decoration-style: initial; text-decoration-color: initial; float: none; display: inline !important; background-color: rgb(255, 255, 0);&quot;&gt;Entirely for cloudbuild&lt;/span&gt;" style="text;whiteSpace=wrap;html=1;rotation=0;fillColor=#FFFF00;" parent="1" vertex="1">
          <mxGeometry x="915" y="292" width="130" height="30" as="geometry" />
        </mxCell>
        <mxCell id="jNqYG85YL75cJUmXPqXT-79" value="1" style="endArrow=open;html=1;endSize=12;startArrow=diamondThin;startSize=14;startFill=1;edgeStyle=orthogonalEdgeStyle;align=left;verticalAlign=bottom;rounded=0;exitX=0;exitY=0;exitDx=70;exitDy=23;exitPerimeter=0;" parent="1" source="jNqYG85YL75cJUmXPqXT-4" edge="1">
          <mxGeometry x="-1" y="3" relative="1" as="geometry">
            <mxPoint x="560" y="215" as="sourcePoint" />
            <mxPoint x="650" y="270" as="targetPoint" />
            <Array as="points">
              <mxPoint x="650" y="213" />
            </Array>
          </mxGeometry>
        </mxCell>
        <mxCell id="jNqYG85YL75cJUmXPqXT-82" value="1" style="endArrow=open;html=1;endSize=12;startArrow=diamondThin;startSize=14;startFill=1;edgeStyle=orthogonalEdgeStyle;align=left;verticalAlign=bottom;rounded=0;exitX=0.993;exitY=0.1;exitDx=0;exitDy=0;exitPerimeter=0;" parent="1" source="jNqYG85YL75cJUmXPqXT-19" edge="1">
          <mxGeometry x="-0.6096" y="19" relative="1" as="geometry">
            <mxPoint x="370" y="366.5" as="sourcePoint" />
            <mxPoint x="470" y="363" as="targetPoint" />
            <Array as="points">
              <mxPoint x="420" y="369" />
              <mxPoint x="420" y="363" />
            </Array>
            <mxPoint as="offset" />
          </mxGeometry>
        </mxCell>
        <mxCell id="jNqYG85YL75cJUmXPqXT-83" value="1" style="endArrow=open;html=1;endSize=12;startArrow=diamondThin;startSize=14;startFill=1;edgeStyle=orthogonalEdgeStyle;align=left;verticalAlign=bottom;rounded=0;exitX=0.75;exitY=0;exitDx=0;exitDy=0;entryX=0.689;entryY=0.024;entryDx=0;entryDy=0;entryPerimeter=0;" parent="1" source="jNqYG85YL75cJUmXPqXT-16" target="OgV2ja9a1OCX6CN3ytBe-1" edge="1">
          <mxGeometry x="-0.9227" y="-22" relative="1" as="geometry">
            <mxPoint x="160" y="300.5" as="sourcePoint" />
            <mxPoint x="539.04" y="355" as="targetPoint" />
            <Array as="points">
              <mxPoint x="178" y="297" />
              <mxPoint x="520" y="297" />
              <mxPoint x="520" y="355" />
              <mxPoint x="522" y="355" />
            </Array>
            <mxPoint x="1" as="offset" />
          </mxGeometry>
        </mxCell>
        <object label="example_infra_pipeline.tf" Description="Provides as examples" id="jNqYG85YL75cJUmXPqXT-84">
          <mxCell style="shape=module;align=left;spacingLeft=20;align=center;verticalAlign=top;whiteSpace=wrap;html=1;" parent="1" vertex="1">
            <mxGeometry x="130" y="718" width="170" height="60" as="geometry" />
          </mxCell>
        </object>
        <mxCell id="jNqYG85YL75cJUmXPqXT-87" value="app_infra_cloudbuild_project" style="text;whiteSpace=wrap;html=1;" parent="1" vertex="1">
          <mxGeometry x="420" y="712" width="170" height="30" as="geometry" />
        </mxCell>
        <mxCell id="jNqYG85YL75cJUmXPqXT-89" value="1" style="endArrow=open;html=1;endSize=12;startArrow=diamondThin;startSize=14;startFill=1;edgeStyle=orthogonalEdgeStyle;align=left;verticalAlign=bottom;rounded=0;entryX=0;entryY=0;entryDx=0;entryDy=35;entryPerimeter=0;" parent="1" source="jNqYG85YL75cJUmXPqXT-84" target="jNqYG85YL75cJUmXPqXT-30" edge="1">
          <mxGeometry x="-1" y="3" relative="1" as="geometry">
            <mxPoint x="380" y="810" as="sourcePoint" />
            <mxPoint x="670" y="451" as="targetPoint" />
            <Array as="points">
              <mxPoint x="850" y="770" />
              <mxPoint x="850" y="373" />
            </Array>
          </mxGeometry>
        </mxCell>
        <mxCell id="jNqYG85YL75cJUmXPqXT-90" value="infra_pipelines" style="text;whiteSpace=wrap;html=1;" parent="1" vertex="1">
          <mxGeometry x="420" y="748" width="170" height="30" as="geometry" />
        </mxCell>
        <mxCell id="jNqYG85YL75cJUmXPqXT-91" value="1" style="endArrow=open;html=1;endSize=12;startArrow=diamondThin;startSize=14;startFill=1;edgeStyle=orthogonalEdgeStyle;align=left;verticalAlign=bottom;rounded=0;entryX=0;entryY=1;entryDx=0;entryDy=0;entryPerimeter=0;" parent="1" target="jNqYG85YL75cJUmXPqXT-29" edge="1">
          <mxGeometry x="-1" y="3" relative="1" as="geometry">
            <mxPoint x="320" y="739" as="sourcePoint" />
            <mxPoint x="610" y="380" as="targetPoint" />
            <Array as="points">
              <mxPoint x="310" y="739" />
              <mxPoint x="310" y="740" />
              <mxPoint x="580" y="740" />
              <mxPoint x="580" y="380" />
            </Array>
          </mxGeometry>
        </mxCell>
        <mxCell id="jNqYG85YL75cJUmXPqXT-92" style="edgeStyle=orthogonalEdgeStyle;rounded=0;orthogonalLoop=1;jettySize=auto;html=1;exitX=1;exitY=0.5;exitDx=0;exitDy=0;entryX=1;entryY=0.25;entryDx=0;entryDy=0;" parent="1" source="jNqYG85YL75cJUmXPqXT-32" target="jNqYG85YL75cJUmXPqXT-32" edge="1">
          <mxGeometry relative="1" as="geometry" />
        </mxCell>
        <mxCell id="jNqYG85YL75cJUmXPqXT-93" value="1" style="endArrow=open;html=1;endSize=12;startArrow=diamondThin;startSize=14;startFill=1;edgeStyle=orthogonalEdgeStyle;align=left;verticalAlign=bottom;rounded=0;" parent="1" edge="1">
          <mxGeometry x="-1" y="3" relative="1" as="geometry">
            <mxPoint x="170" y="617" as="sourcePoint" />
            <mxPoint x="170.5" y="718" as="targetPoint" />
            <Array as="points">
              <mxPoint x="170" y="637" />
              <mxPoint x="170" y="867" />
            </Array>
          </mxGeometry>
        </mxCell>
        <mxCell id="jNqYG85YL75cJUmXPqXT-94" value="1" style="endArrow=open;html=1;endSize=12;startArrow=diamondThin;startSize=14;startFill=1;edgeStyle=orthogonalEdgeStyle;align=left;verticalAlign=bottom;rounded=0;entryX=0.847;entryY=0.017;entryDx=0;entryDy=0;entryPerimeter=0;" parent="1" target="jNqYG85YL75cJUmXPqXT-84" edge="1">
          <mxGeometry x="-1" y="3" relative="1" as="geometry">
            <mxPoint x="314.5" y="618" as="sourcePoint" />
            <mxPoint x="240" y="690" as="targetPoint" />
            <Array as="points">
              <mxPoint x="315" y="660" />
              <mxPoint x="274" y="660" />
            </Array>
          </mxGeometry>
        </mxCell>
        <mxCell id="jNqYG85YL75cJUmXPqXT-96" value="&lt;span style=&quot;color: rgb(0, 0, 0); font-family: Helvetica; font-size: 12px; font-style: normal; font-variant-ligatures: normal; font-variant-caps: normal; font-weight: 400; letter-spacing: normal; orphans: 2; text-align: left; text-indent: 0px; text-transform: none; widows: 2; word-spacing: 0px; -webkit-text-stroke-width: 0px; text-decoration-thickness: initial; text-decoration-style: initial; text-decoration-color: initial; float: none; display: inline !important; background-color: rgb(255, 255, 0);&quot;&gt;4 example projects: shared, floating, peering, restricted_shared_vpc&lt;/span&gt;" style="text;whiteSpace=wrap;html=1;rotation=0;fillColor=#FFFF00;" parent="1" vertex="1">
          <mxGeometry x="550" y="282" width="200" height="40" as="geometry" />
        </mxCell>
        <mxCell id="jNqYG85YL75cJUmXPqXT-97" value="" style="endArrow=none;dashed=1;html=1;dashPattern=1 3;strokeWidth=2;rounded=0;" parent="1" edge="1">
          <mxGeometry width="50" height="50" relative="1" as="geometry">
            <mxPoint x="610" y="360" as="sourcePoint" />
            <mxPoint x="626" y="322" as="targetPoint" />
          </mxGeometry>
        </mxCell>
        <object label="base-env" Description="Provides as examples" id="OgV2ja9a1OCX6CN3ytBe-1">
          <mxCell style="shape=module;align=left;spacingLeft=20;align=center;verticalAlign=top;whiteSpace=wrap;html=1;" vertex="1" parent="1">
            <mxGeometry x="460" y="356" width="90" height="42" as="geometry" />
          </mxCell>
        </object>
      </root>
    </mxGraphModel>
  </diagram>
</mxfile>
